<?xml version="1.0" encoding="UTF-8"?><svg width="1085px" height="837px" viewBox="0 0 1085 837" version="1.1" xmlns="http://www.w3.org/2000/svg" xmlns:xlink="http://www.w3.org/1999/xlink"><title>tr</title><desc>Created with Sketch.</desc><g id="tr" stroke="none" stroke-width="1" fill="none" fill-rule="evenodd"><path d="M194.727078,0 L890.272922,0 C957.98377,0 982.537359,7.05010505 1007.29143,20.2887285 C1032.04551,33.527352 1051.47265,52.9544938 1064.71127,77.7085675 C1077.94989,102.462641 1085,127.01623 1085,194.727078 L1085,639.302539 C1085,707.013386 1077.94989,731.566976 1064.71127,756.321049 C1051.47265,781.075123 1032.04551,800.502265 1007.29143,813.740888 C982.537359,826.979512 957.98377,834.029617 890.272922,834.029617 L194.727078,834.029617 C127.01623,834.029617 102.462641,826.979512 77.7085675,813.740888 C52.9544938,800.502265 33.527352,781.075123 20.2887285,756.321049 C7.05010505,731.566976 0,707.013386 0,639.302539 L0,194.727078 C0,127.01623 7.05010505,102.462641 20.2887285,77.7085675 C33.527352,52.9544938 52.9544938,33.527352 77.7085675,20.2887285 C102.462641,7.05010505 127.01623,0 194.727078,0 Z" id="Rectangle-3" fill="#FF4B4B"/><path d="M655.834771,237.679036 C642.278979,234.226345 630.334056,232.5 620,232.5 C517.275037,232.5 434,315.775037 434,418.5 C434,521.224963 517.275037,604.5 620,604.5 C630.333704,604.5 642.278166,602.773772 655.833386,599.321317 L655.833201,599.320591 C664.129176,597.207642 672.567277,602.219976 674.680226,610.515951 C676.267988,616.749909 673.840272,623.316687 668.579229,627.018665 C631.173456,653.339555 583.98038,666.5 527,666.5 C390.033382,666.5 279,555.466618 279,418.5 C279,281.533382 390.033382,170.5 527,170.5 C583.980989,170.5 631.174465,183.660726 668.580427,209.982178 L668.580554,209.981998 C675.581526,214.908372 677.263321,224.577396 672.336947,231.578368 C668.63506,236.839197 662.068498,239.26678 655.834771,237.679036 Z" id="Path" fill="#FFFFFF" fill-rule="nonzero"/><path d="M718.574781,495.354892 L687.069834,512.06582 C676.53208,517.65528 663.45839,513.643895 657.86893,503.106141 C655.635573,498.895615 654.857677,494.064595 655.65645,489.365831 L661.753995,453.49718 C662.603539,448.499758 660.955763,443.402707 657.341585,439.848318 L631.615615,414.54793 C623.04095,406.115114 622.925958,392.327826 631.358774,383.75316 C634.686918,380.369033 639.029621,378.164982 643.725879,377.476486 L678.985187,372.307291 C684.044944,371.565504 688.413209,368.375776 690.660283,363.782079 L706.453841,331.495281 C711.690588,320.78979 724.614325,316.356496 735.319816,321.593243 C739.629486,323.701381 743.113716,327.185611 745.221854,331.495281 L761.015411,363.782079 C763.262485,368.375776 767.63075,371.565504 772.690508,372.307291 L807.949816,377.476486 C819.849143,379.220989 828.081255,390.281498 826.336753,402.180825 C825.648257,406.877083 823.444206,411.219786 820.060079,414.54793 L794.334109,439.848318 C790.719932,443.402707 789.072155,448.499758 789.921699,453.49718 L796.019244,489.365831 C798.018348,501.125504 790.105843,512.279196 778.34617,514.2783 C773.647406,515.077073 768.816386,514.299177 764.60586,512.06582 L733.100913,495.354892 C728.558586,492.94554 723.117108,492.94554 718.574781,495.354892 Z" id="Star-2" fill="#FFFFFF" fill-rule="nonzero" transform="translate(725.837847, 412.248881) rotate(-15.000000) translate(-725.837847, -412.248881)"/></g></svg>